<svg width="400" height="64" viewBox="0 0 400 64" fill="none" xmlns="http://www.w3.org/2000/svg">
<path d="M400 3.78553L399.331 15.4166C399.265 16.3431 398.83 17.2076 398.12 17.8258C397.409 18.444 396.479 18.7668 395.528 18.7253C395.057 18.7061 394.595 18.5959 394.169 18.4008C393.743 18.2057 393.361 17.9296 393.045 17.589C392.729 17.2483 392.486 16.8498 392.33 16.4166C392.174 15.9833 392.107 15.5241 392.135 15.0656L392.392 8.69853L386.892 10.5536C386.443 10.7031 385.969 10.7646 385.495 10.7346C385.022 10.7046 384.56 10.5834 384.135 10.3784C383.709 10.1734 383.33 9.88854 383.018 9.54001C382.706 9.19148 382.468 8.78631 382.318 8.34771C382.155 7.92024 382.083 7.46535 382.104 7.01007C382.126 6.55479 382.24 6.10837 382.441 5.69706C382.643 5.28575 382.927 4.91786 383.276 4.61538C383.626 4.31289 384.034 4.0819 384.476 3.93592L395.116 0.22592C395.568 0.0597121 396.049 -0.0161208 396.532 0.00285216C397.014 0.0218251 397.487 0.135241 397.924 0.336383C398.36 0.537526 398.751 0.822351 399.072 1.17373C399.393 1.52511 399.639 1.93595 399.794 2.38179C399.938 2.83621 400.007 3.30997 400 3.78553Z" fill="#B84600"/>
<path d="M348.656 18.8262C348.703 19.3347 348.64 19.8471 348.472 20.3306C348.304 20.8141 348.034 21.258 347.679 21.6337C347.405 21.9519 347.057 22.2004 346.663 22.3576C346.269 22.5149 345.841 22.5761 345.417 22.536C344.991 22.4836 344.559 22.4836 344.132 22.536C332.824 21.8843 327.89 37.5762 327.89 37.5762V60.1865C327.895 60.669 327.802 61.1477 327.617 61.5952C327.431 62.0426 327.157 62.4497 326.81 62.7934C326.483 63.1364 326.084 63.4076 325.641 63.5891C325.198 63.7706 324.72 63.8582 324.24 63.8462C323.761 63.8491 323.286 63.7574 322.844 63.5764C322.403 63.3955 322.003 63.1291 321.67 62.7934C321.006 62.08 320.639 61.1502 320.642 60.1865V19.127C320.62 18.6582 320.698 18.1902 320.871 17.7522C321.044 17.3142 321.307 16.9157 321.645 16.5816C321.982 16.2475 322.387 15.9848 322.834 15.8103C323.28 15.6358 323.759 15.5533 324.24 15.5675C324.724 15.5512 325.206 15.6318 325.657 15.8042C326.108 15.9767 326.518 16.2373 326.861 16.5701C327.531 17.2599 327.9 18.1769 327.89 19.127V26.5467C327.89 25.9952 328.403 25.3936 328.712 24.8421C329.633 23.0845 330.83 21.4778 332.259 20.0795C333.746 18.6868 335.49 17.5812 337.399 16.8209C339.315 15.9599 341.406 15.5315 343.515 15.5675C344.795 15.5807 346.05 15.9082 347.165 16.5199C347.585 16.7595 347.939 17.0942 348.199 17.4956C348.458 17.897 348.615 18.3534 348.656 18.8262V18.8262Z" fill="#B84600"/>
<path d="M313.492 39.432C313.559 43.7543 312.478 48.0201 310.356 51.815C308.389 55.3578 305.499 58.3322 301.978 60.438C298.407 62.5195 294.315 63.5953 290.155 63.5463C285.963 63.5956 281.838 62.5204 278.23 60.438C274.694 58.3335 271.787 55.3599 269.8 51.815C267.772 47.9782 266.713 43.7238 266.713 39.4069C266.713 35.0899 267.772 30.8357 269.8 26.9989C271.802 23.4908 274.708 20.5529 278.23 18.4761C281.838 16.3937 285.963 15.3185 290.155 15.3678C294.315 15.3188 298.407 16.3946 301.978 18.4761C305.499 20.5819 308.389 23.5563 310.356 27.0991C312.47 30.8792 313.55 35.1266 313.492 39.432V39.432ZM306.244 39.432C306.332 36.2668 305.607 33.1303 304.137 30.3076C302.852 27.7639 300.856 25.6263 298.38 24.1412C295.893 22.6672 293.039 21.8876 290.13 21.8876C287.22 21.8876 284.366 22.6672 281.88 24.1412C279.407 25.6456 277.399 27.7769 276.071 30.3076C274.651 33.1319 273.913 36.2361 273.913 39.3819C273.913 42.5278 274.651 45.6318 276.071 48.4561C277.441 50.9715 279.439 53.1095 281.88 54.6727C284.366 56.1467 287.22 56.9263 290.13 56.9263C293.039 56.9263 295.893 56.1467 298.38 54.6727C300.818 53.1217 302.802 50.9796 304.137 48.4561C305.591 45.6635 306.315 42.5634 306.244 39.432V39.432Z" fill="#B84600"/>
<path d="M389.932 39.6815C390.278 39.3794 390.554 39.0082 390.74 38.593C390.926 38.1777 391.019 37.7282 391.011 37.275C391.017 34.1556 390.37 31.0678 389.109 28.2009C387.993 25.5983 386.37 23.2316 384.329 21.2322C382.403 19.2981 380.071 17.7933 377.493 16.8206C374.944 15.8215 372.221 15.3108 369.474 15.3165C365.849 15.3683 362.302 16.3542 359.194 18.1741C355.759 20.2178 352.953 23.1275 351.072 26.5965C348.907 30.6985 347.845 35.2701 347.988 39.8819C347.892 44.1572 348.918 48.3856 350.97 52.1648C352.937 55.6452 355.855 58.5259 359.399 60.487C363.239 62.5911 367.59 63.6474 371.993 63.5451C375.186 63.5495 378.336 62.8287 381.194 61.4395C383.781 60.212 386.102 58.5099 388.03 56.4262C388.469 56.1149 388.827 55.7081 389.077 55.2382C389.327 54.7683 389.461 54.2482 389.469 53.7189C389.473 53.3291 389.398 52.9424 389.248 52.5811C389.098 52.2197 388.876 51.8907 388.595 51.6132C388.317 51.3141 387.975 51.0784 387.593 50.9224C387.211 50.7665 386.799 50.6942 386.385 50.7109C385.578 50.736 384.802 51.0177 384.175 51.513C383.296 52.4173 382.332 53.2397 381.296 53.9695C380.037 54.8058 378.672 55.48 377.236 55.975C374.867 56.6968 372.372 56.9357 369.905 56.6769C367.438 56.4182 365.052 55.6673 362.895 54.4709C360.393 52.9857 358.364 50.8506 357.035 48.3045C355.754 45.9001 355.051 43.2426 354.979 40.5337H387.67C388.502 40.5134 389.302 40.2123 389.932 39.6815V39.6815ZM383.455 34.6681H355.082C355.275 33.5918 355.567 32.5346 355.956 31.5097C356.704 29.502 357.858 27.6609 359.348 26.0952C360.702 24.7695 362.332 23.7437 364.128 23.0873C365.772 22.4807 367.511 22.1583 369.268 22.1347C371.48 22.1336 373.661 22.6311 375.642 23.5885C377.647 24.5481 379.404 25.9361 380.782 27.6493C382.193 29.4703 383.048 31.6424 383.25 33.916L383.455 34.6681Z" fill="#B84600"/>
<path d="M259.726 34.3156V59.8337C259.737 60.8137 259.37 61.762 258.698 62.4908C258.008 63.1402 257.087 63.5031 256.128 63.5031C255.169 63.5031 254.248 63.1402 253.558 62.4908C252.9 61.7571 252.551 60.8079 252.581 59.8337V34.5162C252.612 32.3482 252.247 30.1921 251.502 28.1491C250.897 26.3424 249.729 24.765 248.161 23.6371C246.301 22.4108 244.08 21.8122 241.838 21.9326H240.399C239.097 22.0746 237.819 22.3778 236.596 22.835C234.71 23.7994 233.075 25.1713 231.815 26.8457C229.579 29.74 228.338 33.2492 228.269 36.8725V59.9841C228.299 60.9583 227.95 61.9075 227.292 62.6412C226.959 62.9907 226.552 63.2657 226.099 63.4474C225.647 63.6292 225.159 63.7132 224.67 63.6939C224.183 63.7037 223.698 63.6153 223.247 63.4341C222.796 63.253 222.388 62.983 222.049 62.6412C221.377 61.9124 221.01 60.9641 221.021 59.9841V34.3658C221.056 32.2712 220.726 30.186 220.044 28.1993C219.483 26.4255 218.347 24.8774 216.806 23.7875C214.96 22.5718 212.76 21.9736 210.535 22.083C208.763 22.112 207.016 22.487 205.395 23.1859V23.1859C203.513 24.1352 201.891 25.5104 200.666 27.1966C199.204 29.1171 198.139 31.2966 197.531 33.6137V44.4928C197.592 44.9923 197.544 45.4986 197.389 45.9787C197.235 46.4587 196.978 46.9014 196.636 47.2776C196.294 47.6538 195.873 47.9549 195.403 48.1612C194.932 48.3674 194.423 48.4739 193.907 48.4739C193.391 48.4739 192.881 48.3674 192.411 48.1612C191.94 47.9549 191.52 47.6538 191.178 47.2776C190.835 46.9014 190.578 46.4587 190.424 45.9787C190.27 45.4986 190.222 44.9923 190.283 44.4928V19.0247C190.259 18.5444 190.338 18.0645 190.515 17.6157C190.692 17.1668 190.963 16.7588 191.311 16.4178C191.649 16.0912 192.05 15.8341 192.492 15.6619C192.933 15.4896 193.406 15.4058 193.881 15.4153C194.373 15.395 194.864 15.4735 195.324 15.646C195.784 15.8185 196.203 16.0812 196.554 16.4178C197.218 17.1281 197.569 18.0644 197.531 19.0247V22.2836L198.147 21.6318C200.333 19.4097 203.003 17.6962 205.96 16.6184V16.6184C206.984 16.2125 208.054 15.9263 209.147 15.7661V15.7661C210.328 15.5032 211.535 15.3688 212.745 15.3651C215.826 15.132 218.899 15.9009 221.485 17.5517C224.07 19.2025 226.022 21.6422 227.035 24.4895C227.786 23.4193 228.629 22.4131 229.554 21.4814C231.755 19.2785 234.421 17.568 237.367 16.468C239.357 15.7462 241.463 15.3729 243.586 15.3651H244.203C247.557 15.19 250.878 16.0878 253.661 17.9219C254.274 18.3697 254.842 18.8732 255.357 19.4259V19.4259C256.826 20.9611 257.932 22.7924 258.595 24.7902C259.512 27.8821 259.894 31.1013 259.726 34.3156V34.3156Z" fill="#B84600"/>
<path d="M193.269 56.4262C194.251 56.4262 195.192 56.8064 195.886 57.4834C196.58 58.1603 196.97 59.0785 196.97 60.0358C196.983 60.5119 196.894 60.9854 196.708 61.4258C196.522 61.8661 196.244 62.2635 195.891 62.5925C195.138 63.2341 194.165 63.5743 193.166 63.5451H177.078C176.59 63.5548 176.106 63.4664 175.654 63.2853C175.203 63.1041 174.796 62.8342 174.456 62.4923C173.792 61.7789 173.425 60.8491 173.428 59.8854V18.8759C173.418 18.4002 173.509 17.9277 173.695 17.4878C173.88 17.0478 174.157 16.65 174.508 16.3192C174.864 15.972 175.29 15.6996 175.758 15.5185C176.227 15.3375 176.728 15.2516 177.232 15.2662C177.727 15.2612 178.217 15.3518 178.676 15.5325C179.135 15.7131 179.552 15.9805 179.905 16.3192C180.255 16.65 180.532 17.0478 180.718 17.4878C180.904 17.9277 180.994 18.4002 180.984 18.8759V58.0805L179.134 56.4262H193.269Z" fill="#383940"/>
<path d="M71.0389 39.432C71.106 43.7543 70.0258 48.0201 67.9034 51.815C65.9365 55.3578 63.0466 58.3322 59.525 60.438C55.9544 62.5195 51.8622 63.5953 47.7027 63.5463C43.5108 63.5956 39.3855 62.5204 35.7776 60.438C32.2418 58.3335 29.3348 55.3599 27.3478 51.815C25.3192 47.9782 24.2607 43.7238 24.2607 39.4069C24.2607 35.0899 25.3192 30.8357 27.3478 26.9989C29.3493 23.4908 32.255 20.5529 35.7776 18.4761C39.3855 16.3937 43.5108 15.3185 47.7027 15.3678C51.8622 15.3188 55.9544 16.3946 59.525 18.4761C63.0466 20.5819 65.9365 23.5563 67.9034 27.0991C70.0172 30.8792 71.0971 35.1266 71.0389 39.432ZM63.7913 39.432C63.8793 36.2668 63.1549 33.1303 61.6839 30.3076C60.3992 27.7639 58.4035 25.6263 55.9269 24.1412C53.4405 22.6672 50.5867 21.8876 47.677 21.8876C44.7673 21.8876 41.9135 22.6672 39.4271 24.1412C36.9351 25.6386 34.9092 27.7705 33.5674 30.3076C32.1306 33.1451 31.3832 36.2673 31.3832 39.432C31.3832 42.5967 32.1306 45.7188 33.5674 48.5563C34.9371 51.0717 36.9347 53.2097 39.3757 54.7729C41.8621 56.247 44.7159 57.0267 47.6256 57.0267C50.5353 57.0267 53.3891 56.247 55.8755 54.7729C58.3329 53.2286 60.335 51.0859 61.6839 48.5563C63.1549 45.7337 63.8793 42.5972 63.7913 39.432Z" fill="#383940"/>
<path d="M100.384 15.266C103.175 15.2435 105.958 15.5807 108.659 16.2687C110.774 16.7653 112.767 17.6686 114.519 18.9258C115.156 19.367 115.681 19.9438 116.056 20.6127C116.43 21.2816 116.642 22.0249 116.678 22.7861C116.639 23.601 116.353 24.3864 115.855 25.0421C115.608 25.3735 115.283 25.6421 114.908 25.8253C114.532 26.0085 114.117 26.1009 113.697 26.0949C112.982 26.1236 112.273 25.968 111.641 25.6437C111.124 25.3052 110.642 24.9192 110.201 24.4907C109.697 23.9337 109.062 23.5037 108.351 23.2374C107.368 22.7407 106.309 22.402 105.215 22.2347C103.855 22.0205 102.481 21.9031 101.103 21.8837C98.026 21.8347 94.9971 22.6342 92.3651 24.1899C89.8943 25.7555 87.8767 27.9132 86.5053 30.4567C85.0334 33.2269 84.2914 36.3108 84.3465 39.4305C84.2828 42.5234 84.9883 45.5853 86.4025 48.3543C87.7198 50.9028 89.7063 53.0652 92.1595 54.621C94.7114 56.1867 97.6779 56.9886 100.692 56.9273C102.424 56.9946 104.157 56.8086 105.832 56.3757C106.93 56.0953 107.984 55.6738 108.968 55.1224C109.887 54.6789 110.721 54.0854 111.435 53.3677C111.731 53.0634 112.091 52.8253 112.49 52.6695C112.889 52.5138 113.319 52.4441 113.748 52.4653C114.194 52.4455 114.64 52.5256 115.049 52.6994C115.459 52.8732 115.823 53.1361 116.112 53.468C116.695 54.1396 117.005 54.9952 116.986 55.8743C116.867 56.5561 116.605 57.2064 116.216 57.7845C115.826 58.3626 115.319 58.8559 114.725 59.2334C112.908 60.6003 110.853 61.6363 108.659 62.2914C105.854 63.1717 102.919 63.5951 99.9725 63.5448C95.7512 63.643 91.5913 62.5459 87.996 60.3863C84.5553 58.2854 81.7934 55.2789 80.0288 51.7133C78.083 47.9001 77.0963 43.6896 77.1503 39.4305C77.0837 35.1643 78.0897 30.9472 80.0802 27.1478C81.9952 23.5879 84.8527 20.593 88.3558 18.4746C91.9798 16.3319 96.146 15.2204 100.384 15.266V15.266Z" fill="#383940"/>
<path d="M163.719 16.3201C163.38 15.9782 162.972 15.7083 162.521 15.5271C162.07 15.346 161.585 15.2574 161.097 15.2672C160.616 15.2485 160.136 15.3331 159.692 15.5151C159.248 15.697 158.851 15.9718 158.527 16.3201C158.195 16.6511 157.933 17.0429 157.756 17.4731C157.58 17.9033 157.493 18.3635 157.499 18.8268V23.4892C156.681 22.3217 155.714 21.2604 154.621 20.3308C152.907 18.8559 150.941 17.6851 148.812 16.8715C146.507 16.0549 144.069 15.6475 141.616 15.6684C137.792 15.6544 134.044 16.7161 130.822 18.7264C127.566 20.8631 124.929 23.7808 123.163 27.199C121.271 31.1196 120.29 35.3993 120.29 39.7325C120.29 44.0657 121.271 48.3454 123.163 52.2659C124.91 55.7233 127.55 58.6779 130.822 60.8389C134.083 62.9385 137.914 64.0384 141.822 63.9972C144.166 64.0051 146.489 63.5623 148.658 62.6938C150.697 61.9231 152.577 60.8025 154.21 59.385C155.498 58.323 156.608 57.0713 157.499 55.6751V60.3375C157.486 61.303 157.854 62.2364 158.527 62.9444C158.851 63.2927 159.248 63.5676 159.692 63.7495C160.136 63.9314 160.616 64.0159 161.097 63.9972C161.585 64.007 162.07 63.9185 162.521 63.7374C162.972 63.5563 163.38 63.2863 163.719 62.9444C164.356 62.2188 164.703 61.293 164.695 60.3375V19.278C164.762 18.7454 164.709 18.2051 164.54 17.6945C164.371 17.1838 164.091 16.715 163.719 16.3201ZM145.728 56.4271C144.316 56.7601 142.854 56.8449 141.411 56.6777C138.977 56.5632 136.625 55.7813 134.626 54.4218C132.362 52.8255 130.585 50.6595 129.486 48.1551C128.155 45.3438 127.487 42.2772 127.532 39.1811C127.472 36.0619 128.158 32.9719 129.537 30.1569C130.731 27.6767 132.597 25.5618 134.934 24.0406C136.918 22.7413 139.229 21.9959 141.616 21.8849C143.049 21.6998 144.501 21.6998 145.934 21.8849C149.491 23.2377 152.493 25.6924 154.481 28.8716C156.468 32.0508 157.33 35.7785 156.934 39.4819C157.245 43.1416 156.317 46.7999 154.294 49.8966C152.27 52.9933 149.261 55.3575 145.728 56.6275V56.4271Z" fill="#383940"/>
<path d="M19.7388 56.4252C20.2335 56.4201 20.7243 56.5105 21.1831 56.6912C21.6418 56.8719 22.0593 57.1393 22.4117 57.4779C22.7622 57.8088 23.039 58.2066 23.2247 58.6465C23.4105 59.0864 23.5011 59.5591 23.4911 60.0348C23.5043 60.5109 23.415 60.9844 23.2291 61.4248C23.0432 61.8651 22.7648 62.2625 22.4117 62.5915C21.6752 63.2255 20.7209 63.5656 19.7388 63.5441H3.65023C3.16254 63.5538 2.67802 63.4654 2.22697 63.2843C1.77591 63.1031 1.36799 62.8332 1.02876 62.4913C0.36447 61.7779 -0.00221405 60.8481 0.000748828 59.8844V18.8749C-0.00927413 18.3992 0.0814139 17.9267 0.267143 17.4868C0.452873 17.0468 0.729646 16.649 1.08017 16.3182C1.44034 15.9757 1.86656 15.7064 2.33418 15.5257C2.8018 15.3449 3.30152 15.2563 3.80443 15.2653C4.29475 15.2586 4.78152 15.3471 5.23648 15.5255C5.69145 15.7039 6.10553 15.9689 6.45465 16.3047C6.80377 16.6406 7.08099 17.0406 7.27019 17.4819C7.45938 17.9231 7.55679 18.3966 7.55674 18.8749V58.0795L5.75766 56.4252H19.7388Z" fill="#383940"/>
</svg>
